<svg id="Layer_2" data-name="Layer 2" xmlns="http://www.w3.org/2000/svg" viewBox="0 0 191.81 192.19"><defs><style>.cls-1{fill:#fff;}.cls-2{fill:none;stroke:#fff;stroke-miterlimit:10;stroke-width:8px;}</style></defs><title>logo</title><path class="cls-1" d="M63.26,47.55s11.1-6.07,13-9.64c2-3.76.89-17.06.89-17.06S83.51,32.51,87.3,34.39s16.3-.06,16.3-.06-11.21,5.93-13.08,9.52c-2,3.77-.32,17-.32,17s-7.12-11.2-11-13C75.63,46.11,63.26,47.55,63.26,47.55Z" transform="translate(-20.52 -20.47)"/><path class="cls-1" d="M53.61,53.42l14.32,9.7S53.58,68.87,45.26,73.17c-3.4,1.76-12.66,5.77-12,9.54.4,2.16,8.26,3,8.26,3s-11.15,1.49-14.77.71c-1.7-.36-5.93-1.43-6.21-3.14-.91-5.73,10.26-14.35,15-17.72C40,62.4,53.61,53.42,53.61,53.42Z" transform="translate(-20.52 -20.47)"/><path class="cls-1" d="M115.56,33.12l-5.81,16.29s15-3.85,24.23-5.31c3.78-.59,13.63-2.84,15.29.61,1,2-4.89,7.3-4.89,7.3s9.87-5.4,12.33-8.16c1.16-1.3,3.94-4.66,3.14-6.21-2.66-5.16-16.77-5.5-22.57-5.42C131.85,32.31,115.56,33.12,115.56,33.12Z" transform="translate(-20.52 -20.47)"/><rect class="cls-1" x="10.41" y="125.6" width="37.54" height="66.6"/><rect class="cls-1" x="58.81" y="108.33" width="37.54" height="83.86"/><rect class="cls-1" x="106.61" y="84.46" width="37.54" height="107.73"/><rect class="cls-1" x="154.27" y="45.86" width="37.54" height="146.33"/><path class="cls-1" d="M37.86,124.09s6.93-1.34,8.55-2.91,3.38-8.91,3.38-8.91,1.39,7.28,3.08,8.92,8.67,2.74,8.67,2.74-7,1.24-8.57,2.83-3.06,9-3.06,9S48,128.58,46.3,127,37.86,124.09,37.86,124.09Z" transform="translate(-20.52 -20.47)"/><path class="cls-1" d="M86.29,101.75s6.91-1.34,8.53-2.9S98.19,90,98.19,90s1.39,7.26,3.08,8.9,8.65,2.73,8.65,2.73-6.95,1.24-8.55,2.82-3.06,9-3.06,9-1.87-7.15-3.6-8.77S86.29,101.75,86.29,101.75Z" transform="translate(-20.52 -20.47)"/><path class="cls-1" d="M134.22,75.09s6.83-1.32,8.44-2.87S146,63.43,146,63.43s1.37,7.18,3,8.8,8.55,2.7,8.55,2.7-6.87,1.23-8.45,2.79-3,8.86-3,8.86-1.85-7.06-3.56-8.67S134.22,75.09,134.22,75.09Z" transform="translate(-20.52 -20.47)"/><path class="cls-1" d="M181.88,32.14s6.84-1.32,8.44-2.87,3.33-8.79,3.33-8.79,1.37,7.18,3,8.8,8.56,2.7,8.56,2.7-6.87,1.23-8.46,2.79-3,8.87-3,8.87-1.85-7.07-3.56-8.67S181.88,32.14,181.88,32.14Z" transform="translate(-20.52 -20.47)"/><line class="cls-2" x1="41.02" y1="98.06" x2="65.76" y2="86.65"/><line class="cls-2" x1="89.39" y1="74.61" x2="113.7" y2="61.05"/><line class="cls-2" x1="133.68" y1="47.05" x2="164.9" y2="18.92"/></svg>